Coordinates
version=1
nRows=7
nColumns=33
inDegrees=yes

Units are S.I. units (second, meters, Newtons, ...)
Angles are in degrees.

endheader
time	ground_thorax_rot_x	ground_thorax_rot_y	ground_thorax_rot_z	ground_thorax_tx	ground_thorax_ty	ground_thorax_tz	clav_prot_r	clav_elev_r	scapula_abduction_r	scapula_elevation_r	scapula_upward_rot_r	scapula_winging_r	shoulder_elv_r	plane_of_elev_r	axial_rot_r	elbow_flexion_r	pro_sup_r	wrist_flex_r	wrist_dev_r	clav_prot_l	clav_elev_l	scapula_abduction_l	scapula_elevation_l	scapula_upward_rot_l	scapula_winging_l	shoulder_elv_l	plane_of_elev_l	axial_rot_l	elbow_flexion_l	pro_sup_l	wrist_flex_l	wrist_dev_l
      4.93000000	    -41.33466548	      2.32124195	     -2.56129556	   -124.48426434	    886.82394610	     -1.42757091	     12.14175394	    -45.00000000	     44.76068295	    -45.00000000	    -45.00000000	   1347.82134081	   -457.34094433	    142.04729610	    179.99999979	     14.60511570	     64.13786583	     26.82772830	     10.55014043	     15.72533408	     42.04000402	    -44.20894706	    -45.00000000	    -34.11421325	   -993.59966462	  -1534.43329991	    135.78763291	   -179.99999979	   1091.20137888	   -325.59673356	      9.70930038	    -24.00291931
      4.94000000	    -41.32112580	      2.10122378	     -2.18086259	   -120.36515162	    883.58389757	     -1.23835279	     11.96932861	    -45.00000000	     44.76336187	    -45.00000000	    -45.00000000	   1348.21025644	   -457.40993339	    141.92356002	    179.99999979	     14.52702472	     63.36427055	     26.61215296	     10.69469455	     15.99445645	     42.17807581	    -44.51194483	    -45.00000000	    -33.99787180	   -993.79330246	  -1534.71353746	    135.86548816	   -179.99999979	   1090.97927154	   -327.91842163	     10.19673470	    -23.89860370
      4.95000000	    -41.23884336	      1.88876933	     -1.68352154	   -116.21088087	    880.13312981	     -1.04536482	     11.94495293	    -45.00000000	     44.59962481	    -45.00000000	    -45.00000000	   1348.66144863	   -457.47003953	    141.91671320	    179.99999979	     14.36656201	     62.53718712	     26.52354170	     10.99858762	     16.38264974	     42.10868211	    -44.76001521	    -45.00000000	    -34.08970243	   -994.22108800	  -1534.90658144	    135.95892808	   -179.99999979	   1090.81314277	   -330.51955544	     10.59123881	    -23.67995184
      4.96000000	    -41.29393560	      1.93543924	     -1.85601703	   -112.02307225	    876.48621426	     -0.84845844	     11.95555827	    -45.00000000	     44.61966599	    -45.00000000	    -44.52636895	   1349.01722226	   -457.68649294	    141.40727889	    179.99999979	     14.13593386	     61.84305323	     26.25884042	     11.24469682	     14.26180796	     42.03361993	    -44.68569827	    -45.00000000	    -32.33292904	   -994.35831744	  -1535.55252358	    136.22036842	   -179.99999979	   1090.54735102	   -332.03262124	     11.17769380	    -23.55084807
      4.97000000	    -41.19863819	      2.01137426	     -1.89367240	   -107.81745700	    872.66112372	     -0.64806588	     11.71523018	    -45.00000000	     44.75567386	    -45.00000000	    -43.47906807	   1349.53366259	   -457.97741561	    141.59396381	    179.99999979	     14.16750676	     61.09830345	     26.24444685	     11.55404052	     14.45306786	     42.17504213	    -44.91849761	    -45.00000000	    -31.77465582	   -994.77527517	  -1535.89860732	    136.48208577	   -179.99999979	   1090.52113291	   -333.43977179	     11.47450504	    -23.38033687
      4.98000000	    -41.11925009	      1.51965821	     -1.27506154	   -103.61322566	    868.67993548	     -0.44657836	     11.62715345	    -45.00000000	     44.91880536	    -45.00000000	    -43.38721573	   1350.07656474	   -458.19921000	    141.87883665	    179.99999979	     14.00925698	     60.21628739	     25.91308313	     11.62773176	     15.88198268	     42.54946847	    -45.00000000	    -45.00000000	    -32.74727099	   -994.82151261	  -1535.90648287	    135.75961116	   -179.99999979	   1090.32393644	   -335.14246169	     11.53174539	    -23.10586180
      4.99000000	    -41.09577102	      1.47496041	     -1.09350354	    -99.42406277	    864.56168572	     -0.24903098	     11.66408907	    -45.00000000	     44.88523268	    -45.00000000	    -42.81421761	   1350.53553377	   -458.59429194	    141.82141295	    179.99999979	     13.66985062	     59.42373533	     25.63479733	     11.90384122	     15.26436523	     42.55582403	    -45.00000000	    -45.00000000	    -32.09949341	   -995.19464998	  -1536.26528616	    135.74143951	   -179.99999979	   1090.17271192	   -336.39790388	     11.86282369	    -22.89441029
